<?xml version="1.0" encoding="UTF-8"?>
<svg xmlns="http://www.w3.org/2000/svg" version="1.1" viewBox="0 0 609.2 139.31">
  <defs>
    <style>
      .cls-1 {
        fill: #f25f41;
      }

      .cls-2 {
        fill: #f5f9ff;
      }

      .cls-3 {
        fill: #14b0e0;
      }

      .cls-4 {
        fill: #28ce92;
      }
    </style>
  </defs>
  <!-- Generator: Adobe Illustrator 28.7.7, SVG Export Plug-In . SVG Version: 1.2.0 Build 194)  -->
  <g>
    <g id="Camada_1">
      <g>
        <g>
          <path class="cls-2" d="M261.87,90.42h32.16v16.14h-50.17V31.49h18.02v58.93Z"/>
          <path class="cls-2" d="M298.16,78.16c0-20.52,11.14-32.53,30.41-32.53,18.27,0,26.9,10.76,26.9,27.15,0,2.5-.12,4.88-.38,8.01h-40.16c1,9.51,5.38,13.76,13.51,13.76s10.51-3.75,12.01-8.26l14.26,3.88c-2.63,10.26-9.51,18.02-26.4,18.02-17.89,0-30.15-9.88-30.15-30.03ZM315.05,72.16h24.77c-.25-9.26-4.13-13.76-11.76-13.76s-12.14,4-13.01,13.76Z"/>
          <path class="cls-2" d="M387.62,128.59c-22.65,0-29.03-4.63-29.03-12.01,0-5.38,5.88-9.01,13.89-10.64v-.75c-6.38-.88-9.13-4-9.13-8.13,0-3.38,2.63-6.38,7.51-8.51l4.38-2.25c-8.88-2.88-13.76-9.13-13.76-18.39,0-13.26,10.01-20.64,26.9-20.64h30.03v12.76h-6.51c-2.88,0-6.63-.13-11.39-.63l-.12,1.38c7.38,1.38,13.64,4.13,13.64,11.01,0,9.88-9.38,16.27-26.03,16.27-3.63,0-7.01-.38-9.88-1l-1,1.63c-.62,1.13-1.13,2.25-1.13,3.25,0,2.13,1.5,3,5.25,3,6.51,0,13.26-.38,19.39-.38,13.14,0,19.14,5.76,19.14,15.39,0,12.39-8.13,18.64-32.16,18.64ZM406.64,110.44c0-2.88-2-4.88-6.76-4.88h-20.14c-5.25,0-8.38,2.5-8.38,5.38,0,4,3.13,5.76,17.39,5.76s17.89-2.13,17.89-6.26ZM376.61,68.53c0,4.75,2.88,8.38,11.39,8.38s11.64-3.63,11.64-8.38-3.5-8.38-11.64-8.38-11.39,3.63-11.39,8.38Z"/>
          <path class="cls-2" d="M461.81,92.43h-1.5c-3,9.38-9.26,15.39-19.39,15.39s-17.39-5.13-17.39-16.77c0-10.63,6.26-18.02,21.9-18.02h15.51v-4.13c0-6.13-2.63-9.63-9.13-9.63-5.63,0-8.88,2.75-10.01,8.51l-16.02-3.63c2-10.76,10.26-18.39,26.65-18.39,18.02,0,25.4,8.26,25.4,23.15v37.66h-16.02v-14.14ZM460.93,83.79v-2.38h-12.26c-5.51,0-9.01,2.5-9.01,6.63,0,3.75,2.13,6.76,8.63,6.76,7.76,0,12.64-4.63,12.64-11.01Z"/>
          <path class="cls-2" d="M516.98,60.52c-7.88,0-12.76,5-12.76,16.27,0,10.51,4.25,16.64,13.01,16.64,7.63,0,10.51-5.13,11.76-11.26l15.64,3.75c-2,13.76-10.39,22.4-27.28,22.4-18.77,0-30.53-10.39-30.53-30.66s11.51-32.03,30.41-32.03c17.64,0,25.15,8.38,27.28,22.77l-15.77,3c-1.5-6.38-4.25-10.89-11.76-10.89Z"/>
          <path class="cls-2" d="M547.89,126.71l2.5-14.39c2.5.5,5.13.88,7.63.88,6.01,0,9.13-1.13,11.89-7.38l-22.27-58.56h18.64l5.88,21.77c1.75,6.63,3.88,14.26,5.76,21.52h2.13c1.88-7.38,3.88-14.76,5.38-21.15l5.51-22.15h18.27l-23.4,59.56c-5.76,14.51-13.26,20.77-28.15,20.77-4.13,0-6.63-.38-9.76-.88Z"/>
        </g>
        <path class="cls-4" d="M113.3,70.88V23.82h-31.7v47.06c0,4.32-2.77,8.14-6.87,9.5l-16.57,5.47c-4.1,1.35-6.87,5.18-6.87,9.5v43.97h31.7v-43.97c0-4.32,2.77-8.14,6.87-9.5l16.57-5.47c4.1-1.35,6.87-5.18,6.87-9.5Z"/>
        <path class="cls-1" d="M134.3,114.83v-19.49c0-4.32,2.77-8.14,6.87-9.5l16.57-5.47c4.1-1.35,6.87-5.18,6.87-9.5V0h-31.7v70.88c0,4.32-2.77,8.14-6.87,9.5l-16.57,5.47c-4.1,1.35-6.87,5.18-6.87,9.5v43.97h62v-24.49h-30.3Z"/>
        <path class="cls-3" d="M62,70.88v-22.97h-31.7v22.97c0,4.32-2.77,8.14-6.87,9.5l-16.57,5.47c-4.1,1.35-6.87,5.18-6.87,9.5v43.97h31.7v-43.97c0-4.32,2.77-8.14,6.87-9.5l16.57-5.47c4.1-1.35,6.87-5.18,6.87-9.5Z"/>
      </g>
    </g>
  </g>
</svg>