<svg width="16" height="17" viewBox="0 0 16 17" fill="none" xmlns="http://www.w3.org/2000/svg">
<path d="M6.66656 9.16666C6.95286 9.54942 7.31813 9.86612 7.73759 10.0953C8.15705 10.3245 8.62089 10.4607 9.09766 10.4949C9.57442 10.529 10.0529 10.4602 10.5008 10.2932C10.9486 10.1261 11.3553 9.86471 11.6932 9.52666L13.6932 7.52666C14.3004 6.89799 14.6364 6.05598 14.6288 5.18199C14.6212 4.308 14.2706 3.47196 13.6526 2.85394C13.0346 2.23591 12.1985 1.88535 11.3246 1.87775C10.4506 1.87016 9.60856 2.20614 8.97989 2.81333L7.83322 3.95333M9.33322 7.83333C9.04692 7.45058 8.68165 7.13388 8.26219 6.9047C7.84273 6.67553 7.37888 6.53925 6.90212 6.50511C6.42536 6.47096 5.94683 6.53975 5.49899 6.70681C5.05115 6.87387 4.64448 7.13528 4.30656 7.47333L2.30656 9.47333C1.69936 10.102 1.36338 10.944 1.37098 11.818C1.37857 12.692 1.72913 13.528 2.34716 14.1461C2.96519 14.7641 3.80123 15.1146 4.67522 15.1222C5.54921 15.1298 6.39121 14.7939 7.01989 14.1867L8.15989 13.0467" stroke="#F5F9FF" stroke-width="1.6" stroke-linecap="round" stroke-linejoin="round"/>
</svg>
