<svg width="16" height="17" viewBox="0 0 16 17" fill="none" xmlns="http://www.w3.org/2000/svg">
<path d="M8.00016 5.83334C9.10473 5.83334 10.0002 4.93791 10.0002 3.83334C10.0002 2.72877 9.10473 1.83334 8.00016 1.83334C6.89559 1.83334 6.00016 2.72877 6.00016 3.83334C6.00016 4.93791 6.89559 5.83334 8.00016 5.83334ZM8.00016 5.83334V15.1667M8.00016 15.1667C6.23205 15.1667 4.53636 14.4643 3.28612 13.214C2.03588 11.9638 1.3335 10.2681 1.3335 8.5H3.3335M8.00016 15.1667C9.76827 15.1667 11.464 14.4643 12.7142 13.214C13.9645 11.9638 14.6668 10.2681 14.6668 8.5H12.6668" stroke="#F5F9FF" stroke-width="1.6" stroke-linecap="round" stroke-linejoin="round"/>
</svg>
